<svg width="127" height="25" viewBox="0 0 127 25" fill="none" xmlns="http://www.w3.org/2000/svg">
<path d="M46.1973 9.90288C46.1973 10.5375 46.0804 11.1304 45.8466 11.6815C45.6295 12.2159 45.3289 12.6919 44.9448 13.1094C45.3289 13.5269 45.6295 14.0112 45.8466 14.5624C46.0804 15.0968 46.1973 15.6813 46.1973 16.3159C46.1973 16.9673 46.072 17.5768 45.8215 18.1447C45.5877 18.6958 45.2621 19.1885 44.8445 19.6227C44.427 20.0402 43.9344 20.3742 43.3665 20.6247C42.7987 20.8752 42.1975 21.0005 41.5629 21.0005H38.1559C37.5046 21.0005 36.895 20.8752 36.3272 20.6247C35.7761 20.3742 35.2834 20.0402 34.8492 19.6227C34.4317 19.1885 34.0977 18.6958 33.8471 18.1447C33.6133 17.5768 33.4964 16.9673 33.4964 16.3159C33.4964 15.6813 33.605 15.0968 33.8221 14.5624C34.0559 14.0112 34.3649 13.5269 34.749 13.1094C34.3649 12.6919 34.0559 12.2159 33.8221 11.6815C33.605 11.1304 33.4964 10.5375 33.4964 9.90288C33.4964 9.25155 33.6133 8.65033 33.8471 8.0992C34.0977 7.53138 34.4317 7.03871 34.8492 6.62119C35.2834 6.18697 35.7761 5.84461 36.3272 5.5941C36.895 5.34359 37.5046 5.21833 38.1559 5.21833H41.5629C42.1975 5.21833 42.7987 5.34359 43.3665 5.5941C43.9344 5.84461 44.427 6.18697 44.8445 6.62119C45.2621 7.03871 45.5877 7.53138 45.8215 8.0992C46.072 8.65033 46.1973 9.25155 46.1973 9.90288ZM41.613 17.9443C42.0138 17.8775 42.3478 17.6938 42.615 17.3931C42.8989 17.0925 43.0409 16.7335 43.0409 16.3159C43.0409 15.8817 42.8989 15.506 42.615 15.1886C42.3311 14.8713 41.9804 14.696 41.5629 14.6626H38.2812C37.8303 14.6793 37.4461 14.8463 37.1288 15.1636C36.8115 15.4642 36.6529 15.84 36.6529 16.2909C36.6529 16.7084 36.7865 17.0675 37.0537 17.3681C37.3209 17.6687 37.6465 17.8608 38.0307 17.9443H41.613ZM41.4126 11.5562C41.8635 11.5395 42.2476 11.3809 42.5649 11.0803C42.8822 10.763 43.0409 10.3788 43.0409 9.92793C43.0409 9.51041 42.9073 9.15135 42.6401 8.85073C42.3728 8.55012 42.0472 8.35806 41.6631 8.27456H38.0808C37.6799 8.34136 37.3376 8.52507 37.0537 8.82568C36.7865 9.1263 36.6529 9.48536 36.6529 9.90288C36.6529 10.3371 36.7948 10.7129 37.0787 11.0302C37.3626 11.3475 37.7217 11.5228 38.1559 11.5562H41.4126ZM65.5946 13.1094C65.9787 13.5269 66.2794 14.0112 66.4965 14.5624C66.7303 15.0968 66.8555 15.673 66.8722 16.2909C66.8555 16.9088 66.7303 17.4933 66.4965 18.0445C66.2794 18.5789 65.9787 19.0549 65.5946 19.4724C65.6113 19.4724 65.6197 19.4807 65.6197 19.4974C65.1855 19.9483 64.6761 20.3158 64.0916 20.5997C63.5237 20.8669 62.8975 21.0005 62.2127 21.0005H55.0481V17.9693H62.2628C62.6804 17.9025 63.0227 17.7188 63.2899 17.4182C63.5738 17.1009 63.7158 16.7335 63.7158 16.3159V16.2909C63.7158 15.8734 63.5822 15.5227 63.315 15.2387C63.0478 14.9381 62.7138 14.7461 62.3129 14.6626H58.6555C57.9708 14.6626 57.3361 14.529 56.7516 14.2618C56.1838 13.9778 55.6828 13.6104 55.2486 13.1595V13.1345C54.8644 12.7169 54.5555 12.241 54.3217 11.7066C54.1046 11.1554 53.996 10.5709 53.996 9.95298C53.996 9.33505 54.1046 8.75888 54.3217 8.22446C54.5555 7.67333 54.8644 7.18901 55.2486 6.7715V6.74645C55.6828 6.29553 56.1838 5.93646 56.7516 5.66925C57.3361 5.38534 57.9708 5.24338 58.6555 5.24338H65.8201V8.27456H58.6054C58.1879 8.34136 57.8372 8.53342 57.5532 8.85073C57.286 9.15135 57.1524 9.51041 57.1524 9.92793V9.95298C57.1524 10.3705 57.286 10.7296 57.5532 11.0302C57.8205 11.3308 58.1461 11.5228 58.5302 11.6063H62.2127C62.8975 11.6063 63.5237 11.74 64.0916 12.0072C64.6761 12.2744 65.1855 12.6334 65.6197 13.0844C65.6197 13.1011 65.6113 13.1094 65.5946 13.1094ZM74.3756 21.0005C73.5072 21.0005 72.6888 20.8418 71.9206 20.5245C71.1691 20.1905 70.5094 19.7396 69.9416 19.1718C69.3738 18.6039 68.9228 17.9443 68.5888 17.1927C68.2715 16.4245 68.1129 15.6062 68.1129 14.7377V5.21833H71.3194V8.47497H79.0351V11.6815H71.3194V14.7377C71.3194 15.1552 71.3945 15.5561 71.5448 15.9402C71.7119 16.3076 71.929 16.6333 72.1962 16.9172C72.4801 17.1844 72.8057 17.4015 73.1732 17.5685C73.5573 17.7188 73.9581 17.794 74.3756 17.794C74.7931 17.794 75.1856 17.7188 75.553 17.5685C75.9371 17.4015 76.2628 17.1844 76.53 16.9172C76.8139 16.6333 77.031 16.3076 77.1813 15.9402C77.3483 15.5561 77.4318 15.1552 77.4318 14.7377H80.6384C80.6384 15.6062 80.4714 16.4245 80.1374 17.1927C79.82 17.9443 79.3775 18.6039 78.8096 19.1718C78.2418 19.7396 77.5738 20.1905 76.8056 20.5245C76.054 20.8418 75.244 21.0005 74.3756 21.0005ZM81.886 8.47497H85.0926V14.7377C85.0926 15.1552 85.1677 15.5561 85.318 15.9402C85.485 16.3076 85.7021 16.6333 85.9694 16.9172C86.2533 17.1844 86.5789 17.4015 86.9463 17.5685C87.3305 17.7188 87.7313 17.794 88.1488 17.794C88.5663 17.794 88.9588 17.7188 89.3262 17.5685C89.7103 17.4015 90.036 17.1844 90.3032 16.9172C90.5871 16.6333 90.8042 16.3076 90.9545 15.9402C91.1215 15.5561 91.205 15.1552 91.205 14.7377V8.47497H94.4116V14.7377C94.4116 15.6062 94.2445 16.4245 93.9105 17.1927C93.5932 17.9443 93.1506 18.6039 92.5828 19.1718C92.015 19.7396 91.347 20.1905 90.5787 20.5245C89.8272 20.8418 89.0172 21.0005 88.1488 21.0005C87.2804 21.0005 86.462 20.8418 85.6938 20.5245C84.9423 20.1905 84.2826 19.7396 83.7148 19.1718C83.1469 18.6039 82.696 17.9443 82.362 17.1927C82.0447 16.4245 81.886 15.6062 81.886 14.7377V8.47497ZM95.6592 14.7377C95.6592 13.8693 95.8179 13.0593 96.1352 12.3078C96.4692 11.5395 96.9201 10.8715 97.4879 10.3037C98.0558 9.73587 98.7154 9.2933 99.467 8.97599C100.235 8.64198 101.054 8.47497 101.922 8.47497C102.473 8.47497 103.008 8.55012 103.525 8.70043C104.043 8.83403 104.527 9.02609 104.978 9.2766V5.21833H108.185V14.7377C108.185 15.6062 108.018 16.4245 107.684 17.1927C107.366 17.9443 106.924 18.6039 106.356 19.1718C105.788 19.7396 105.12 20.1905 104.352 20.5245C103.6 20.8418 102.79 21.0005 101.922 21.0005C101.054 21.0005 100.235 20.8418 99.467 20.5245C98.7154 20.1905 98.0558 19.7396 97.4879 19.1718C96.9201 18.6039 96.4692 17.9443 96.1352 17.1927C95.8179 16.4245 95.6592 15.6062 95.6592 14.7377ZM98.8657 14.7377C98.8657 15.1552 98.9409 15.5561 99.0912 15.9402C99.2582 16.3076 99.4753 16.6333 99.7425 16.9172C100.026 17.1844 100.352 17.4015 100.72 17.5685C101.104 17.7188 101.504 17.794 101.922 17.794C102.339 17.794 102.732 17.7188 103.099 17.5685C103.483 17.4015 103.809 17.1844 104.076 16.9172C104.36 16.6333 104.577 16.3076 104.728 15.9402C104.895 15.5561 104.978 15.1552 104.978 14.7377C104.978 14.3202 104.895 13.9277 104.728 13.5603C104.577 13.1762 104.36 12.8505 104.076 12.5833C103.809 12.2994 103.483 12.0823 103.099 11.932C102.732 11.765 102.339 11.6815 101.922 11.6815C101.504 11.6815 101.104 11.765 100.72 11.932C100.352 12.0823 100.026 12.2994 99.7425 12.5833C99.4753 12.8505 99.2582 13.1762 99.0912 13.5603C98.9409 13.9277 98.8657 14.3202 98.8657 14.7377ZM109.432 8.47497V5.21833H112.639V8.47497H109.432ZM112.639 9.2766V21.0005H109.432V9.2766H112.639ZM120.148 8.47497C121.016 8.47497 121.826 8.64198 122.578 8.97599C123.346 9.2933 124.014 9.73587 124.582 10.3037C125.149 10.8715 125.592 11.5395 125.909 12.3078C126.243 13.0593 126.41 13.8693 126.41 14.7377C126.41 15.6062 126.243 16.4245 125.909 17.1927C125.592 17.9443 125.149 18.6039 124.582 19.1718C124.014 19.7396 123.346 20.1905 122.578 20.5245C121.826 20.8418 121.016 21.0005 120.148 21.0005C119.279 21.0005 118.461 20.8418 117.693 20.5245C116.941 20.1905 116.281 19.7396 115.714 19.1718C115.146 18.6039 114.695 17.9443 114.361 17.1927C114.043 16.4245 113.885 15.6062 113.885 14.7377C113.885 13.8693 114.043 13.0593 114.361 12.3078C114.695 11.5395 115.146 10.8715 115.714 10.3037C116.281 9.73587 116.941 9.2933 117.693 8.97599C118.461 8.64198 119.279 8.47497 120.148 8.47497ZM120.148 17.794C120.565 17.794 120.958 17.7188 121.325 17.5685C121.709 17.4015 122.035 17.1844 122.302 16.9172C122.586 16.6333 122.803 16.3076 122.953 15.9402C123.12 15.5561 123.204 15.1552 123.204 14.7377C123.204 14.3202 123.12 13.9277 122.953 13.5603C122.803 13.1762 122.586 12.8505 122.302 12.5833C122.035 12.2994 121.709 12.0823 121.325 11.932C120.958 11.765 120.565 11.6815 120.148 11.6815C119.73 11.6815 119.329 11.765 118.945 11.932C118.578 12.0823 118.252 12.2994 117.968 12.5833C117.701 12.8505 117.484 13.1762 117.317 13.5603C117.167 13.9277 117.091 14.3202 117.091 14.7377C117.091 15.1552 117.167 15.5561 117.317 15.9402C117.484 16.3076 117.701 16.6333 117.968 16.9172C118.252 17.1844 118.578 17.4015 118.945 17.5685C119.329 17.7188 119.73 17.794 120.148 17.794Z" fill="black"/>
<path d="M31.932 4.68457C32.0308 4.68457 32.1109 4.76468 32.1109 4.86351V20.6099H28.7786V8.32464L26.4234 8.84184C26.3117 8.86636 26.2061 8.78136 26.2061 8.66707V6.26263C26.2061 6.19062 26.2492 6.12563 26.3156 6.0977L29.6406 4.69858C29.6625 4.68933 29.6861 4.68457 29.71 4.68457H31.932Z" fill="black"/>
<path d="M17.0527 0C21.2794 0 24.7061 3.42667 24.7061 7.65332V17.3467C24.7061 21.4412 21.4908 24.7852 17.4473 24.9902L17.0527 25H1.58418C0.985403 25 0.5 24.5146 0.5 23.9158V20.3557C0.5 19.7569 0.985403 19.2715 1.58418 19.2715H9.23041C9.83103 19.2715 10.3172 18.7832 10.3146 18.1826L10.3047 15.9219C10.3017 15.1655 10.905 14.544 11.6611 14.5244L17.9107 14.3623C18.4984 14.3471 18.9668 13.8664 18.9668 13.2785V7.65332C18.9668 6.59666 18.1094 5.74023 17.0527 5.74023H7.32441C6.72564 5.74023 6.24023 6.22564 6.24023 6.82441V9.41376C6.24023 10.0152 5.7506 10.5018 5.14913 10.4979L0.733398 10.4697C0.604813 10.4708 0.5 10.3669 0.5 10.2383V1.08418C0.5 0.485404 0.985403 0 1.58418 0H17.0527Z" fill="black"/>
</svg>
